<?xml version="1.0" encoding="UTF-8"?>
<svg xmlns="http://www.w3.org/2000/svg" width="980" height="560" viewBox="0 0 980 560">
<rect x="0" y="0" width="100%" height="100%" fill="#ffffff"/>
<text x="490.0" y="26" text-anchor="middle" font-size="20" font-family="Arial">MS1 Question Token-Length Distribution</text>
<line x1="80" y1="475" x2="950" y2="475" stroke="#1f2937" stroke-width="2"/>
<line x1="80" y1="50" x2="80" y2="475" stroke="#1f2937" stroke-width="2"/>
<line x1="80" y1="475.00" x2="950" y2="475.00" stroke="#e5e7eb" stroke-width="1"/>
<text x="68" y="479.00" text-anchor="end" font-size="12" font-family="Arial" fill="#374151">0</text>
<line x1="80" y1="390.00" x2="950" y2="390.00" stroke="#e5e7eb" stroke-width="1"/>
<text x="68" y="394.00" text-anchor="end" font-size="12" font-family="Arial" fill="#374151">270</text>
<line x1="80" y1="305.00" x2="950" y2="305.00" stroke="#e5e7eb" stroke-width="1"/>
<text x="68" y="309.00" text-anchor="end" font-size="12" font-family="Arial" fill="#374151">540</text>
<line x1="80" y1="220.00" x2="950" y2="220.00" stroke="#e5e7eb" stroke-width="1"/>
<text x="68" y="224.00" text-anchor="end" font-size="12" font-family="Arial" fill="#374151">810</text>
<line x1="80" y1="135.00" x2="950" y2="135.00" stroke="#e5e7eb" stroke-width="1"/>
<text x="68" y="139.00" text-anchor="end" font-size="12" font-family="Arial" fill="#374151">1080</text>
<line x1="80" y1="50.00" x2="950" y2="50.00" stroke="#e5e7eb" stroke-width="1"/>
<text x="68" y="54.00" text-anchor="end" font-size="12" font-family="Arial" fill="#374151">1350</text>
<rect x="86.00" y="465.56" width="117.43" height="9.44" fill="#ff2d20" stroke="#b91c1c" stroke-width="1"/>
<text x="144.71" y="497" text-anchor="middle" font-size="11" font-family="Arial" fill="#374151">3</text>
<rect x="209.43" y="238.89" width="117.43" height="236.11" fill="#ff2d20" stroke="#b91c1c" stroke-width="1"/>
<text x="268.14" y="497" text-anchor="middle" font-size="11" font-family="Arial" fill="#374151">4</text>
<rect x="332.86" y="408.89" width="117.43" height="66.11" fill="#ff2d20" stroke="#b91c1c" stroke-width="1"/>
<text x="391.57" y="497" text-anchor="middle" font-size="11" font-family="Arial" fill="#374151">5</text>
<rect x="456.29" y="50.00" width="117.43" height="425.00" fill="#ff2d20" stroke="#b91c1c" stroke-width="1"/>
<text x="515.00" y="497" text-anchor="middle" font-size="11" font-family="Arial" fill="#374151">6</text>
<rect x="579.71" y="78.33" width="117.43" height="396.67" fill="#ff2d20" stroke="#b91c1c" stroke-width="1"/>
<text x="638.43" y="497" text-anchor="middle" font-size="11" font-family="Arial" fill="#374151">7</text>
<rect x="703.14" y="475.00" width="117.43" height="0.00" fill="#ff2d20" stroke="#b91c1c" stroke-width="1"/>
<text x="761.86" y="497" text-anchor="middle" font-size="11" font-family="Arial" fill="#374151">8</text>
<rect x="826.57" y="383.70" width="117.43" height="91.30" fill="#ff2d20" stroke="#b91c1c" stroke-width="1"/>
<text x="885.29" y="497" text-anchor="middle" font-size="11" font-family="Arial" fill="#374151">9</text>
<text x="515.0" y="530" text-anchor="middle" font-size="14" font-family="Arial">Question Length (tokens)</text>
<text x="20" y="262.5" transform="rotate(-90 20,262.5)" text-anchor="middle" font-size="14" font-family="Arial">Count</text>
</svg>